<svg width="304" height="269" viewBox="0 0 304 269" fill="none" xmlns="http://www.w3.org/2000/svg">
<path d="M268.374 134.456H182.605C182.343 134.456 182.137 134.25 182.137 133.988V26.0558C182.137 25.7935 182.343 25.5874 182.605 25.5874C182.867 25.5874 183.073 25.7935 183.073 26.0558V133.519H267.905V50.2613C267.905 49.999 268.111 49.7929 268.374 49.7929C268.636 49.7929 268.842 49.999 268.842 50.2613V133.988C268.842 134.25 268.636 134.456 268.374 134.456Z" fill="#E2209E"/>
<path d="M124.32 218.5L129.791 237.029L152.947 233.076L147.645 215.783L124.32 218.5Z" fill="#FD8753"/>
<path d="M88.219 215.146L85.7085 236.317L108.846 240.738L111.001 220.936L88.219 215.146Z" fill="#FD8753"/>
<path d="M163.139 26.729C163.139 26.729 165.499 34.1293 161.434 35.6656C157.368 37.1831 157.35 32.9677 157.35 32.9677L159.86 27.6658L163.139 26.729Z" fill="#FD8753"/>
<path d="M144.405 41.4555C144.405 41.4555 149.726 27.7603 154.56 25.3622C159.393 22.9829 168.611 23.2827 170.016 25.7744C171.421 28.2849 167.206 28.3411 166.119 28.0788C165.032 27.8165 161.754 28.5472 160.967 29.6525C160.18 30.7766 159.88 35.4791 159.88 35.4791C159.88 35.4791 163.477 36.2097 165.032 34.8983C166.587 33.5869 168.161 31.2263 169.248 32.9499C170.334 34.6735 165.969 43.7225 162.84 46.2329C159.712 48.7247 151.749 51.8534 151.749 51.8534L144.405 41.4368V41.4555Z" fill="#FD8753"/>
<path d="M159.861 35.9657C159.562 35.947 159.374 35.7034 159.393 35.4599C159.393 35.3849 159.543 33.8487 160.124 31.282C160.761 28.453 163.327 27.9097 163.44 27.891C163.702 27.8535 163.945 28.0034 163.983 28.2657C164.039 28.5092 163.87 28.7715 163.627 28.809C163.552 28.809 161.547 29.2586 161.042 31.4881C160.48 33.9798 160.33 35.5348 160.33 35.5536C160.311 35.7971 160.105 35.9845 159.861 35.9845V35.9657Z" fill="black"/>
<path d="M191.037 15.9565H174.175C173.254 15.9565 172.508 16.7031 172.508 17.624V34.4854C172.508 35.4063 173.254 36.1528 174.175 36.1528H191.037C191.958 36.1528 192.704 35.4063 192.704 34.4854V17.624C192.704 16.7031 191.958 15.9565 191.037 15.9565Z" fill="#816AA6"/>
<path d="M191.037 41.7734H174.175C173.254 41.7734 172.508 42.52 172.508 43.4408V60.3023C172.508 61.2232 173.254 61.9697 174.175 61.9697H191.037C191.958 61.9697 192.704 61.2232 192.704 60.3023V43.4408C192.704 42.52 191.958 41.7734 191.037 41.7734Z" fill="#816AA6"/>
<path d="M191.037 67.5728H174.175C173.254 67.5728 172.508 68.3192 172.508 69.2401V86.1016C172.508 87.0224 173.254 87.769 174.175 87.769H191.037C191.958 87.769 192.704 87.0224 192.704 86.1016V69.2401C192.704 68.3192 191.958 67.5728 191.037 67.5728Z" fill="#816AA6"/>
<path d="M174.324 37.5024L164.9 29.5213L167.317 26.6549L174.006 32.3128L179.457 26.3926L182.211 28.9405L174.324 37.5024Z" fill="white"/>
<path d="M182.381 59.4221L174.625 52.8275L177.06 49.9797L181.781 53.989L187.87 45.8955L190.868 48.1624L182.381 59.4221Z" fill="white"/>
<path d="M182.381 85.2395L174.625 78.6448L177.06 75.7784L181.781 79.8064L187.87 71.7129L190.868 73.9611L182.381 85.2395Z" fill="white"/>
<path d="M293.105 32.9678H243.626C241.598 32.9678 239.954 34.6118 239.954 36.6398V63.8991C239.954 65.9271 241.598 67.5712 243.626 67.5712H293.105C295.133 67.5712 296.777 65.9271 296.777 63.8991V36.6398C296.777 34.6118 295.133 32.9678 293.105 32.9678Z" fill="#07CBF5"/>
<path d="M303.896 118.661V196.093C303.896 200.739 300.13 204.505 295.503 204.505H174.513C169.866 204.505 166.101 200.739 166.101 196.093V118.661C166.101 114.015 169.866 110.25 174.513 110.25H295.503C300.13 110.25 303.896 114.015 303.896 118.661Z" fill="#E0DDFF"/>
<path d="M61.3156 155.702H49.269V237.836H61.3156V155.702Z" fill="#6C29D6"/>
<path d="M80.6495 242.744H30.1214C28.0231 242.744 26.3369 241.058 26.3369 238.96C26.3369 236.861 28.0231 235.175 30.1214 235.175H80.6495C82.7478 235.175 84.4339 236.861 84.4339 238.96C84.4339 241.058 82.7478 242.744 80.6495 242.744Z" fill="#6C29D6"/>
<path d="M28.754 256.682C33.2446 256.682 36.885 253.042 36.885 248.551C36.885 244.061 33.2446 240.42 28.754 240.42C24.2634 240.42 20.623 244.061 20.623 248.551C20.623 253.042 24.2634 256.682 28.754 256.682Z" fill="#6C29D6"/>
<path d="M63.4138 248.551C63.4138 253.048 59.7605 256.682 55.2828 256.682C50.8052 256.682 47.1519 253.029 47.1519 248.551C47.1519 244.074 50.8052 240.42 55.2828 240.42C59.7605 240.42 63.4138 244.074 63.4138 248.551Z" fill="#6C29D6"/>
<path d="M89.8479 248.551C89.8479 253.048 86.1946 256.682 81.7169 256.682C77.2393 256.682 73.5859 253.029 73.5859 248.551C73.5859 244.074 77.2393 240.42 81.7169 240.42C86.1946 240.42 89.8479 244.074 89.8479 248.551Z" fill="#6C29D6"/>
<path d="M30.44 64.9307C30.44 64.9307 -5.36242 84.6773 0.68896 126.775C6.2345 165.425 45.5966 177.752 78.9073 168.666C112.218 159.58 106.654 133.332 106.654 133.332L30.4588 64.9307H30.44Z" fill="#E0DDFF"/>
<path d="M28.9791 143.843C28.4545 148.095 39.0585 152.91 52.66 154.615C66.2616 156.32 77.7274 154.259 78.2707 150.006C78.814 145.754 68.1913 140.939 54.5897 139.234C40.9882 137.529 29.5224 139.59 28.9791 143.843Z" fill="#2E2865"/>
<path d="M15.452 148.039C15.3396 148.039 15.2272 148.001 15.1335 147.908C6.62782 140.039 5.05408 125.201 4.99787 124.564C4.97914 124.302 5.16649 124.077 5.41004 124.058C5.6536 124.021 5.89713 124.227 5.91587 124.47C5.91587 124.62 7.52709 139.589 15.7705 147.215C15.9578 147.383 15.9765 147.683 15.7892 147.87C15.6955 147.964 15.5644 148.02 15.452 148.02V148.039Z" fill="#3E3789"/>
<path d="M131.964 254.565C130.259 254.677 128.779 253.328 128.573 251.53C127.767 244.392 125.107 228.486 126.399 228.336C128.067 228.148 145.265 230.846 145.265 230.846C145.265 230.846 144.628 220.898 151.71 221.91C157.143 222.678 163.963 228.298 166.848 230.865C167.766 231.689 168.871 232.195 170.033 232.345C175.091 233.019 189.086 235.549 190.098 242.799C191.335 251.661 187.644 251.042 185.995 251.23C184.571 251.398 143.542 253.89 131.964 254.602V254.565Z" fill="#FFB700"/>
<path d="M79.8066 248.589C78.2142 247.989 77.4086 246.153 77.9706 244.43C80.1813 237.591 84.3218 222.004 85.577 222.397C87.1695 222.922 101.727 232.458 101.727 232.458C101.727 232.458 105.249 223.128 111.3 226.969C115.928 229.91 119.843 237.835 121.398 241.376C121.904 242.5 122.691 243.418 123.684 244.055C128.012 246.753 139.721 254.846 137.641 261.853C135.112 270.434 132.021 268.354 130.428 267.83C129.061 267.38 90.6729 252.729 79.8254 248.589H79.8066Z" fill="#FFB700"/>
<path d="M68.5278 12.5842C68.5278 12.5842 54.6827 8.85597 44.3785 21.4833C34.0743 34.0919 40.4816 49.6232 56.7997 49.1923C73.1179 48.7426 76.9211 32.0686 76.9211 32.0686L68.5278 12.603V12.5842Z" fill="white"/>
<path d="M89.3242 22.9829C89.3242 22.9829 93.2585 18.805 92.2843 12.1728C91.6099 7.67646 89.6615 6.1964 89.6615 6.1964C89.6615 6.1964 92.8089 0.145038 83.7787 0.332387C74.7297 0.519736 67.3294 -0.248403 63.3014 7.52659C60.9221 12.1166 61.8776 22.0649 61.8776 22.0649L89.3429 22.9829H89.3242Z" fill="white"/>
<path d="M69.3521 30.0459L69.4083 41.0808C69.4083 41.0808 71.4129 44.247 77.8764 44.7341C82.6913 45.09 84.1901 42.617 84.1901 42.617L82.9723 32.9685L71.3005 30.4768L69.3521 30.0646V30.0459Z" fill="#FD8753"/>
<path d="M69.3708 29.3713C69.4083 29.6711 69.5207 30.027 69.6893 30.4392C72.181 35.9285 80.8928 38.1767 83.6655 38.4015L82.9723 32.9497L69.3521 29.3525L69.3708 29.3713Z" fill="black"/>
<path d="M85.2951 7.7895C85.2951 7.7895 91.1591 21.5784 88.9297 29.2785C86.7002 36.9785 79.6746 35.6858 75.478 34.1683C71.2814 32.6507 69.3517 30.0278 69.3517 30.0278C69.3517 30.0278 65.4173 31.3206 62.8132 27.6485C60.2278 23.9765 61.8764 19.7798 64.1246 18.8431C66.3728 17.9063 69.0332 19.555 69.0332 19.555L66.9723 15.5458C66.9723 15.5458 75.9651 -4.66923 85.2764 7.7895H85.2951Z" fill="#FD8753"/>
<path d="M69.0344 19.5537C69.0344 19.5537 74.9171 20.8651 79.1512 14.3641C83.3853 7.86308 83.0481 5.16527 83.0481 5.16527L87.0012 12.0222C87.0012 12.0222 88.0128 7.33851 86.1768 4.30345C84.3595 1.2684 82.3924 1.84918 82.3924 1.84918L69.2967 4.84678L65.6621 15.2259L69.0156 19.5537H69.0344Z" fill="white"/>
<path d="M83.8711 25.2688C83.8711 25.2688 83.7774 25.2688 83.7212 25.2501C83.4776 25.1751 83.3465 24.9128 83.4214 24.6505C84.2645 22.1026 83.1404 19.3111 83.1404 19.2924C83.0467 19.0488 83.1404 18.7865 83.4027 18.6741C83.6275 18.5804 83.9085 18.6741 84.0209 18.9364C84.0772 19.0675 85.2762 22.0651 84.3207 24.9503C84.2645 25.1564 84.0772 25.2688 83.8711 25.2688Z" fill="black"/>
<path d="M68.3589 26.018C68.2278 26.018 68.0967 25.9618 68.0217 25.8682L64.3497 21.8589C64.181 21.6715 64.1811 21.3718 64.3871 21.2032C64.5745 21.0346 64.8743 21.0346 65.0429 21.2407L68.7149 25.2499C68.8835 25.4373 68.8835 25.737 68.6774 25.9056C68.5838 25.9806 68.4713 26.0368 68.3589 26.0368V26.018Z" fill="black"/>
<path d="M64.4243 24.8947C64.1995 24.8947 63.9934 24.7261 63.956 24.4825C63.9185 24.2203 64.1058 23.9954 64.3494 23.958L66.9348 23.602C67.1971 23.5833 67.4219 23.7519 67.4594 23.9954C67.4969 24.2577 67.3095 24.4826 67.066 24.52L64.4805 24.876C64.4805 24.876 64.4431 24.876 64.4243 24.876V24.8947Z" fill="black"/>
<path d="M87.3561 14.0842L84.9018 13.6158C84.6396 13.5596 84.4897 13.3161 84.5272 13.0725C84.5834 12.8103 84.8082 12.6416 85.0705 12.6978L87.4311 13.1662C87.6934 13.2224 87.8433 13.466 87.8058 13.7095C87.7683 13.9343 87.5622 14.0842 87.3374 14.0842H87.3561Z" fill="black"/>
<path d="M78.308 14.6279C78.1206 14.6279 77.9333 14.5155 77.8771 14.3282C77.7834 14.0846 77.9145 13.8223 78.1581 13.7286L80.6123 12.8107C80.8559 12.717 81.1182 12.8481 81.2119 13.0917C81.3055 13.3352 81.1744 13.5975 80.9309 13.6912L78.4766 14.6092C78.4766 14.6092 78.3642 14.6467 78.308 14.6467V14.6279Z" fill="black"/>
<path d="M86.0446 19.7236C85.8385 19.7236 85.6511 19.5925 85.5949 19.3864L84.883 16.8946C84.8455 16.7448 84.883 16.5761 84.9767 16.4637L85.7635 15.5457C85.9322 15.3584 86.2319 15.3209 86.4193 15.4895C86.6066 15.6581 86.6441 15.9579 86.4755 16.1452L85.8573 16.8759L86.4942 19.1241C86.5692 19.3677 86.4193 19.6299 86.1757 19.7049C86.1382 19.7049 86.0821 19.7049 86.0446 19.7049V19.7236Z" fill="black"/>
<path d="M79.0944 20.2482C78.8883 20.2482 78.701 20.117 78.6448 19.911L77.9328 17.4192C77.8953 17.2693 77.9328 17.1007 78.0265 16.9883L79.0944 15.7893C79.263 15.6019 79.5628 15.5832 79.7501 15.7518C79.9375 15.9204 79.9562 16.2202 79.7876 16.4075L78.8883 17.4192L79.5253 19.6674C79.6002 19.911 79.4503 20.1732 79.2068 20.2482C79.1693 20.2482 79.1131 20.2482 79.0756 20.2482H79.0944Z" fill="black"/>
<path d="M82.2054 29.2596C82.093 29.2596 81.9806 29.2596 81.8494 29.2221C80.3132 28.9786 79.4701 27.1051 79.4327 27.0301C79.3577 26.8615 79.3765 26.6741 79.4889 26.543C79.6013 26.4119 79.7886 26.3369 79.9572 26.3744L84.1538 27.2924C84.3225 27.3299 84.4536 27.4423 84.4911 27.6109C84.5473 27.7608 84.4911 27.9481 84.3787 28.0606C83.648 28.8474 82.9173 29.2221 82.1679 29.2221L82.2054 29.2596ZM80.8752 27.5547C81.175 27.9107 81.5684 28.2479 82.018 28.3041C82.3553 28.3603 82.7112 28.2666 83.0672 28.0231L80.8752 27.536V27.5547Z" fill="black"/>
<path d="M88.5371 110.231C88.5371 110.231 131.103 112.629 142.175 121.21C153.248 129.79 153.847 219.549 153.847 219.549L119.131 223.502L118.813 135.617L88.5371 110.231Z" fill="#E2209E"/>
<path d="M66.5234 41.6799C66.5234 41.6799 67.7412 37.3897 68.3595 37.3897C69.1651 37.3897 73.6427 39.5442 77.7082 39.5254C81.7737 39.488 82.4669 38.2327 83.6846 38.4013C84.9024 38.5699 85.3333 41.6799 85.3333 41.6799C85.3333 41.6799 92.846 44.1717 101.595 46.2138C110.344 48.2372 124.077 45.5956 129.847 42.7853C135.618 39.9751 145.454 33.8862 145.454 33.8862L155.608 60.5835C155.608 60.5835 135 86.9623 116.115 87.1309C97.23 87.2995 74.4296 83.5338 74.4296 83.5338L66.5422 41.6987L66.5234 41.6799Z" fill="#5E1DBB"/>
<path d="M37.5208 111.599C37.5208 111.599 34.3921 145.153 39.3755 148.3C51.0099 155.682 82.8593 153.827 83.0092 155.195C83.1591 156.562 79.4496 217.732 79.4496 217.732L121.416 225.563C121.416 225.563 136.835 136.273 128.104 121.865C119.374 107.458 67.9463 108.826 67.9463 108.826L37.5208 111.58V111.599Z" fill="#E2209E"/>
<path d="M119.224 103.767L95.918 101.444L104.705 63.562L128.011 65.8852L119.224 103.767Z" fill="#FFB700"/>
<path d="M122.709 104.124L99.4214 101.801L108.208 63.9189L131.514 66.2421L122.709 104.124Z" fill="white"/>
<path d="M92.4335 80.4053L93.314 109.126C93.314 109.126 74.8976 114.278 60.9963 115.533C47.095 116.788 37.5776 115.533 37.5776 115.533V104.442L92.4335 80.4053Z" fill="#5E1DBB"/>
<path d="M89.4365 84.1515C89.4365 84.1515 92.228 78.3811 95.0383 76.339C97.8485 74.2969 102.139 74.3157 102.139 74.3157L101.277 78.4373C101.277 78.4373 107.815 79.2991 108.921 78.4373C110.026 77.5755 114.71 73.8286 115.965 74.1471C117.22 74.4656 114.56 78.4373 114.56 78.4373C114.56 78.4373 117.37 75.8707 118.307 77.4257C119.244 78.9807 115.647 85.2381 115.647 85.2381C115.647 85.2381 118.925 81.9782 117.839 87.1116C116.752 92.2637 107.253 97.2472 103.956 97.7156C100.659 98.184 87.5068 98.2214 87.5068 98.2214L89.4552 84.1328L89.4365 84.1515Z" fill="#FD8753"/>
<path d="M101.277 78.9252C101.277 78.9252 101.22 78.9252 101.183 78.9252L97.7544 78.2132C97.4922 78.157 97.3423 77.9135 97.3797 77.6699C97.4359 77.4076 97.6795 77.2578 97.923 77.2952L101.352 78.0072C101.614 78.0634 101.764 78.3069 101.726 78.5692C101.689 78.794 101.483 78.9439 101.258 78.9439L101.277 78.9252Z" fill="black"/>
<path d="M104.705 84.3021C104.462 84.3021 104.256 84.1148 104.237 83.8525C104.237 83.5902 104.424 83.3841 104.686 83.3653C104.724 83.3653 107.89 83.1967 109.651 82.3162C111.412 81.4356 114.166 78.1757 114.185 78.1383C114.354 77.9322 114.653 77.9135 114.841 78.0821C115.047 78.2507 115.066 78.5505 114.897 78.7378C114.785 78.8877 112.012 82.1851 110.063 83.1593C108.115 84.1335 104.855 84.3021 104.724 84.3021H104.705Z" fill="black"/>
<path d="M105.492 90.2402C105.23 90.2402 105.023 90.0341 105.023 89.7905C105.023 89.5282 105.23 89.3222 105.473 89.3035C105.492 89.3035 108.115 89.2285 110.344 88.1419C113.248 86.7368 115.29 84.9195 115.309 84.9007C115.496 84.7321 115.796 84.7508 115.965 84.9382C116.133 85.1255 116.115 85.4253 115.927 85.5939C115.834 85.6689 113.754 87.5236 110.738 88.9849C108.321 90.1652 105.586 90.2402 105.473 90.2402H105.492Z" fill="black"/>
<path d="M262.528 42.4688H250.837V54.1594H262.528V42.4688Z" fill="#7E59D8"/>
<path d="M278.022 38.29L281.656 44.585L285.291 50.8799H278.022H270.734L274.368 44.585L278.022 38.29Z" fill="#E2209E"/>
<path d="M276.036 54.1576C276.036 58.6353 272.401 62.2699 267.924 62.2699C263.446 62.2699 259.812 58.6353 259.812 54.1576C259.812 49.68 263.446 46.0454 267.924 46.0454C272.401 46.0454 276.036 49.68 276.036 54.1576Z" fill="white"/>
<path d="M270.847 80.0298C270.847 81.3975 269.723 82.5216 268.356 82.5216C266.988 82.5216 265.864 81.3975 265.864 80.0298C265.864 78.6622 266.988 77.5381 268.356 77.5381C269.723 77.5381 270.847 78.6622 270.847 80.0298Z" fill="#E2209E"/>
<path d="M270.847 104.124C270.847 105.492 269.723 106.616 268.356 106.616C266.988 106.616 265.864 105.492 265.864 104.124C265.864 102.756 266.988 101.632 268.356 101.632C269.723 101.632 270.847 102.756 270.847 104.124Z" fill="#E2209E"/>
<path d="M185.097 99.0083C185.097 100.376 183.973 101.5 182.605 101.5C181.237 101.5 180.113 100.376 180.113 99.0083C180.113 97.6407 181.237 96.5166 182.605 96.5166C183.973 96.5166 185.097 97.6407 185.097 99.0083Z" fill="#E2209E"/>
<path d="M303.896 118.661V120.891H166.101V118.661C166.101 114.015 169.866 110.25 174.513 110.25H295.503C300.13 110.25 303.896 114.015 303.896 118.661Z" fill="#9977CE"/>
<path d="M290.33 118.7C290.218 118.7 290.106 118.662 290.012 118.587C289.825 118.419 289.806 118.119 289.974 117.932L294.34 113.079C294.508 112.892 294.808 112.873 294.995 113.042C295.183 113.21 295.202 113.51 295.033 113.698L290.668 118.55C290.574 118.644 290.443 118.7 290.312 118.7H290.33Z" fill="white"/>
<path d="M294.696 118.7C294.565 118.7 294.433 118.644 294.34 118.55L289.974 113.698C289.806 113.51 289.825 113.21 290.012 113.042C290.199 112.873 290.499 112.892 290.668 113.079L295.033 117.932C295.202 118.119 295.183 118.419 294.995 118.587C294.902 118.662 294.789 118.7 294.677 118.7H294.696Z" fill="white"/>
<path d="M213.518 163.607H182.923C182.661 163.607 182.455 163.401 182.455 163.139V132.545C182.455 132.282 182.661 132.076 182.923 132.076H213.518C213.78 132.076 213.986 132.282 213.986 132.545V163.139C213.986 163.401 213.78 163.607 213.518 163.607ZM183.392 162.67H213.049V133.013H183.392V162.67Z" fill="#5E1DBB"/>
<path d="M256.683 177.995H198.212C197.949 177.995 197.743 177.789 197.743 177.527V146.933C197.743 146.67 197.949 146.464 198.212 146.464H256.683C256.946 146.464 257.152 146.67 257.152 146.933V177.527C257.152 177.789 256.946 177.995 256.683 177.995ZM198.68 177.059H256.215V147.401H198.68V177.059Z" fill="#5E1DBB"/>
<path d="M122.596 216.197C122.259 216.141 122.091 215.897 122.128 215.635C122.259 214.923 135.299 144.686 129.753 129.997C124.264 115.478 90.185 115.103 89.8291 115.103C89.6043 115.103 89.3982 114.935 89.3607 114.691C89.3232 114.466 89.4731 114.241 89.7167 114.185L97.7165 112.106C97.96 112.049 98.2223 112.199 98.2785 112.443C98.3347 112.686 98.1848 112.949 97.9413 113.005L93.0702 114.279C101.913 114.747 125.875 117.145 130.615 129.679C136.273 144.611 123.589 212.918 123.046 215.822C123.009 216.047 122.803 216.197 122.578 216.197H122.596Z" fill="white"/>
<path d="M68.3603 41.3804C68.3603 41.3804 41.4757 41.9986 26.0194 72.4429C10.5631 102.887 26.8063 118.493 53.0351 115.065C79.264 111.636 92.4347 103.356 92.4347 103.356L89.4371 77.5388L68.3603 41.3804Z" fill="#5E1DBB"/>
<path d="M51.9661 81.6237C51.76 81.6237 51.5727 81.4925 51.5165 81.2864C51.4415 81.0429 51.5914 80.7806 51.835 80.7057C62.4202 77.6893 84.0215 77.6519 84.9583 77.6519C85.2393 77.6519 85.4454 77.8579 85.4454 78.1202C85.4454 78.3825 85.2393 78.5886 84.977 78.5886C84.0403 78.5886 62.5513 78.6261 52.0972 81.6237C52.0598 81.6237 52.0036 81.6237 51.9661 81.6237Z" fill="#FFB700"/>
<path d="M74.8038 44.8647C70.5322 44.8647 66.448 42.2043 66.2607 42.0732C66.0359 41.9233 65.9797 41.6422 66.1296 41.4174C66.2794 41.1926 66.5604 41.1364 66.7853 41.2863C66.8227 41.305 71.2442 44.1902 75.4408 43.8904C75.6843 43.853 75.9279 44.0591 75.9466 44.3213C75.9466 44.5836 75.778 44.8085 75.5157 44.8272C75.2909 44.8272 75.0474 44.8459 74.8226 44.8459L74.8038 44.8647Z" fill="#FFB700"/>
<path d="M115.066 56.2743C114.785 56.2743 114.522 56.1993 114.26 56.0307C112.162 54.7193 111.544 47.6562 111.487 46.8694C111.487 46.6633 111.6 46.4759 111.787 46.401C111.974 46.326 112.199 46.401 112.33 46.5509C112.836 47.1879 117.183 52.8083 116.546 55.1689C116.415 55.656 116.096 55.9933 115.628 56.1806C115.44 56.2556 115.253 56.293 115.066 56.293V56.2743ZM112.611 48.4806C112.967 51.2346 113.717 54.5881 114.766 55.2439C114.935 55.3563 115.103 55.375 115.29 55.3001C115.478 55.2251 115.59 55.1127 115.646 54.9254C115.965 53.7451 114.241 50.7662 112.611 48.4806Z" fill="#FFB700"/>
<path d="M53.4835 80.6298C49.3993 80.6298 44.4345 80.3113 43.7226 78.7751C43.5727 78.4378 43.4978 77.8945 44.1348 77.22C47.4696 73.6229 57.9424 79.3745 58.392 79.6181C58.5794 79.7118 58.6731 79.9366 58.6168 80.1427C58.5794 80.3488 58.392 80.4986 58.186 80.4986C57.1743 80.5548 55.4319 80.6298 53.4835 80.6298ZM47.4696 76.9765C46.3455 76.9765 45.4087 77.2388 44.8279 77.8758C44.6968 78.0069 44.5095 78.2505 44.5844 78.4003C45.0715 79.4308 50.7669 79.8242 56.3687 79.6556C53.8957 78.4566 50.1487 76.9952 47.4696 76.9952V76.9765Z" fill="#FFB700"/>
<path d="M83.0101 155.682C82.8977 155.682 82.7853 155.645 82.6916 155.551C82.5418 155.401 82.5043 155.195 82.5979 155.008C83.5534 153.078 86.8133 146.821 88.7992 146.821C89.1552 146.821 89.5861 146.989 89.8671 147.664C91.2535 150.961 84.078 155.158 83.2537 155.626C83.1787 155.664 83.1038 155.682 83.0289 155.682H83.0101ZM88.7805 147.758C87.9562 147.758 85.9328 150.718 84.2092 153.903C86.4948 152.366 89.7172 149.743 88.9866 148.02C88.9491 147.945 88.8742 147.758 88.7805 147.758Z" fill="white"/>
<path d="M65.7184 110.719C65.4936 110.719 65.3063 110.569 65.2501 110.344C65.1939 110.082 65.3625 109.838 65.6248 109.801C65.7559 109.782 79.1514 107.215 89.6055 101.108C89.8303 100.976 90.1113 101.051 90.2425 101.276C90.3736 101.501 90.2987 101.782 90.0738 101.913C79.4886 108.114 65.9432 110.681 65.7934 110.719C65.7559 110.719 65.7372 110.719 65.6997 110.719H65.7184Z" fill="#FFB700"/>
</svg>
