<svg width="303" height="290" viewBox="0 0 303 290" fill="none" xmlns="http://www.w3.org/2000/svg">
<path d="M299.232 124.109H229.028C226.955 124.109 225.26 122.414 225.26 120.341V88.268C225.26 86.1947 226.955 84.5 229.028 84.5H299.232C301.305 84.5 303 86.1947 303 88.268V120.341C303 122.414 301.305 124.109 299.232 124.109ZM229.028 85.4014C227.442 85.4014 226.162 86.6815 226.162 88.268V120.341C226.162 121.928 227.442 123.208 229.028 123.208H299.232C300.819 123.208 302.099 121.928 302.099 120.341V88.268C302.099 86.6815 300.819 85.4014 299.232 85.4014H229.028Z" fill="#07CBF5"/>
<path d="M302.549 92.6304H225.711C225.459 92.6304 225.26 92.4321 225.26 92.1797C225.26 91.9273 225.459 91.729 225.711 91.729H302.549C302.802 91.729 303 91.9273 303 92.1797C303 92.4321 302.802 92.6304 302.549 92.6304Z" fill="#07CBF5"/>
<path d="M293.536 90.5756C293.392 90.5756 293.265 90.5035 293.175 90.3953C293.031 90.197 293.085 89.9086 293.283 89.7643L297.376 86.8437C297.574 86.6995 297.863 86.7535 298.007 86.9519C298.151 87.1502 298.097 87.4386 297.899 87.5829L293.806 90.5035C293.806 90.5035 293.644 90.5936 293.554 90.5936L293.536 90.5756Z" fill="#07CBF5"/>
<path d="M297.628 90.5771C297.538 90.5771 297.448 90.559 297.376 90.4869L293.283 87.5663C293.085 87.422 293.031 87.1336 293.175 86.9353C293.319 86.7369 293.608 86.6829 293.806 86.8271L297.899 89.7477C298.097 89.892 298.151 90.1804 298.007 90.3788C297.917 90.505 297.773 90.559 297.646 90.559L297.628 90.5771Z" fill="#07CBF5"/>
<path d="M127.491 67.4993C127.491 67.4993 139.137 65.1736 141.734 61.5498C144.33 57.926 137.118 48.2446 137.118 48.2446L128.699 50.1196L122.695 62.8839L127.509 67.5173L127.491 67.4993Z" fill="#FD8753"/>
<path d="M133.134 4.63339V88.4128C133.134 90.9548 134.901 93.0461 137.083 93.0461H262.598C264.762 93.0461 266.529 90.9729 266.529 88.4128V4.63339C266.529 2.09134 264.762 0 262.598 0H137.083C134.901 0 133.134 2.07331 133.134 4.63339Z" fill="#E0DDFF"/>
<path d="M133.134 4.63339V9.5372H266.529V4.63339C266.529 2.09134 264.762 0 262.598 0H137.083C134.901 0 133.134 2.07331 133.134 4.63339Z" fill="white"/>
<path d="M244.641 7.04861C245.896 7.04861 246.913 6.03158 246.913 4.77701C246.913 3.52243 245.896 2.50537 244.641 2.50537C243.387 2.50537 242.37 3.52243 242.37 4.77701C242.37 6.03158 243.387 7.04861 244.641 7.04861Z" fill="#FFB700"/>
<path d="M249.636 4.77701C249.636 6.02099 250.645 7.04861 251.907 7.04861C253.169 7.04861 254.179 6.03901 254.179 4.77701C254.179 3.515 253.169 2.50537 251.907 2.50537C250.645 2.50537 249.636 3.515 249.636 4.77701Z" fill="#07CBF5"/>
<path d="M256.883 4.77701C256.883 6.02099 257.892 7.04861 259.154 7.04861C260.416 7.04861 261.426 6.03901 261.426 4.77701C261.426 3.515 260.416 2.50537 259.154 2.50537C257.892 2.50537 256.883 3.515 256.883 4.77701Z" fill="#5E1DBB"/>
<path d="M118.477 55.7273C118.477 55.7273 125.292 48.3355 128.501 46.5146C131.71 44.6937 141.319 46.1721 141.716 48.2454C142.113 50.3187 133.91 50.7153 133.91 50.7153C133.91 50.7153 130.899 63.3354 123.687 61.3342C116.476 59.333 118.477 55.7273 118.477 55.7273Z" fill="#FD8753"/>
<path d="M178.819 114.5C177.882 113.671 176.854 112.949 175.718 112.318C174.528 111.651 173.284 111.164 172.004 110.804L170.814 112.913L167.082 112.517L166.47 110.209C163.891 110.353 161.385 111.074 159.132 112.318L159.799 114.842L156.86 117.15L154.697 115.834C153.813 116.807 153.038 117.889 152.371 119.097C151.776 120.197 151.307 121.315 150.965 122.468L153.363 123.785L153.002 127.499L150.262 128.238C150.388 130.798 151.091 133.286 152.299 135.539L154.841 134.728L157.167 137.667L155.869 140.101C156.842 140.984 157.942 141.759 159.132 142.426C160.268 143.057 161.44 143.544 162.647 143.887L164.018 141.453L167.75 141.849L168.453 144.536C171.013 144.373 173.501 143.652 175.736 142.408L174.853 139.524L177.81 137.234L180.388 138.658C181.181 137.757 181.884 136.747 182.479 135.666C183.146 134.458 183.651 133.214 183.993 131.952L181.542 130.726L181.92 127.012L184.57 126.164C184.39 123.604 183.633 121.098 182.353 118.845L179.973 119.602L177.647 116.663L178.819 114.482V114.5ZM174.745 131.393C172.527 135.431 167.443 136.91 163.405 134.674C159.366 132.456 157.888 127.372 160.123 123.334C162.341 119.295 167.425 117.817 171.463 120.053C175.502 122.27 176.98 127.354 174.745 131.393Z" fill="white"/>
<path d="M202.111 123.659C201.715 123.046 201.264 122.451 200.723 121.91C200.146 121.333 199.533 120.847 198.884 120.432L197.857 121.424L195.819 120.576L195.855 119.17C194.377 118.827 192.827 118.809 191.348 119.134L191.294 120.666L189.257 121.478L188.247 120.378C187.58 120.775 186.967 121.261 186.39 121.838C185.868 122.361 185.417 122.92 185.038 123.515L186.174 124.669L185.363 126.706L183.686 126.67C183.325 128.13 183.307 129.663 183.632 131.141L185.2 131.105L186.03 133.142L184.894 134.296C185.291 134.963 185.777 135.576 186.354 136.153C186.895 136.694 187.472 137.163 188.103 137.559L189.293 136.405L191.33 137.253L191.294 138.893C192.772 139.236 194.287 139.236 195.765 138.893V137.109L197.784 136.297L199.01 137.523C199.605 137.145 200.164 136.694 200.687 136.171C201.264 135.594 201.751 134.981 202.165 134.314L200.976 133.214L201.805 131.177L203.446 131.141C203.77 129.663 203.752 128.112 203.409 126.634L201.931 126.67L201.102 124.633L202.129 123.587L202.111 123.659ZM196.991 132.547C195.062 134.458 191.943 134.458 190.032 132.529C188.121 130.6 188.121 127.481 190.05 125.57C191.979 123.659 195.098 123.659 197.009 125.588C198.92 127.517 198.92 130.636 196.991 132.547Z" fill="#07CBF5"/>
<path d="M84.5469 248.725V261.922L109.877 260.984V248.725H84.5469Z" fill="#FD8753"/>
<path d="M22.2749 247.245V260.442L45.7122 259.505V247.245H22.2749Z" fill="#FD8753"/>
<path d="M51.5361 282.239C51.5361 284.583 50.7428 287.233 49.1022 287.9C47.4796 288.585 34.2466 289.974 22.6902 288.982C11.6025 288.045 9.31286 287.233 8.50156 286.26C8.10493 285.755 8.88017 283.411 9.76357 281.158C9.81766 281.05 9.87174 280.923 9.92583 280.815C9.96189 280.743 9.97992 280.671 10.016 280.599C10.4306 279.535 10.8633 278.525 11.1878 277.786C11.5304 277.047 11.945 276.344 12.4499 275.659C13.6397 274.036 16.0195 270.683 16.6325 268.952C17.4258 266.645 18.6337 261.651 19.463 259.307C20.2743 256.981 22.2575 256.512 22.2575 256.512C22.2575 256.512 45.0458 254.98 46.6683 256.314C48.2909 257.648 49.1022 268.628 49.1022 270.286V271.945C49.1022 273.495 50.1839 276.542 50.8871 279.084C51.0854 279.715 51.2296 280.31 51.3378 280.851C51.4099 281.14 51.464 281.41 51.482 281.662C51.5181 281.879 51.5361 282.059 51.5361 282.239Z" fill="#5E1DBB"/>
<path d="M152.533 286.998C151 287.611 86.3672 289.342 84.8709 286.998C84.4562 286.349 84.1497 284.258 83.9334 281.571L83.8793 280.868C83.3564 273.747 83.3564 263.164 83.3564 263.164C83.3564 263.164 83.8252 259.126 83.9334 257.431C84.0055 255.772 114.131 256.854 114.131 256.854L134.143 269.798C134.143 269.798 139.894 271.511 145.952 272.485C149.125 272.99 151.198 276.776 152.226 280.363C152.226 280.399 152.226 280.435 152.262 280.472C153.164 283.699 153.254 286.691 152.533 286.998Z" fill="#5E1DBB"/>
<path d="M69.817 102.006C69.817 102.006 98.3925 130.546 109.787 175.239C121.181 219.95 120.424 252.852 120.424 252.852H77.335C77.335 252.852 76.1992 225.539 71.4756 203.183C66.7341 180.828 59.8291 164.385 59.8291 164.385L55.1957 252.852H12.1973C12.1973 252.852 20.0938 124.452 27.738 105.269C33.9579 89.6745 69.817 102.006 69.817 102.006Z" fill="#9364ED"/>
<path d="M59.8296 164.836C59.5772 164.836 59.3789 164.62 59.3789 164.385L59.7575 133.791C59.7575 133.61 59.8657 133.448 60.046 133.376L71.2959 129.049C71.5303 128.959 71.7827 129.067 71.8728 129.302C71.9629 129.536 71.8548 129.788 71.6204 129.879L60.6589 134.097L60.2803 164.385C60.2803 164.638 60.082 164.836 59.8296 164.836Z" fill="white"/>
<path d="M29.2342 124.632C28.9277 124.632 28.6212 124.632 28.2967 124.578C28.0443 124.56 27.864 124.326 27.9001 124.092C27.9181 123.839 28.1525 123.659 28.3869 123.695C34.138 124.29 38.0322 118.683 38.0683 118.611C38.2125 118.395 38.4829 118.358 38.6993 118.485C38.8976 118.629 38.9517 118.899 38.8255 119.116C38.6632 119.35 35.0214 124.632 29.2342 124.632Z" fill="white"/>
<path d="M118.061 49.9224L132.502 68.9427C132.502 68.9427 123.091 86.4306 109.155 91.4606C95.2184 96.4906 79.7318 91.4606 79.7318 91.4606V113.996H24.7803C24.7803 113.996 27.2322 52.0318 29.035 51.4188C42.0157 47.0559 59.8461 45.3972 68.1213 47.3263C71.5107 48.1195 92.1175 58.8827 95.2184 59.2433C98.3194 59.6219 118.061 49.9224 118.061 49.9224Z" fill="#E2209E"/>
<path d="M44.7397 40.8891L44.5054 50.2099C44.5054 50.2099 46.182 52.9143 51.825 53.4731C56.0257 53.8878 57.5221 52.9864 57.5221 52.9864L57.0533 48.2448L56.5846 43.6295L46.4344 41.2677L44.7397 40.8711V40.8891Z" fill="#FD8753"/>
<path d="M46.4336 41.2851C46.4516 41.5375 46.5417 41.844 46.686 42.1866C48.7412 46.8921 54.6186 47.9918 57.0344 48.2442L56.5657 43.6289L46.4155 41.2671L46.4336 41.2851Z" fill="black"/>
<path d="M59.2519 22.4104C59.2519 22.4104 64.0295 34.2012 61.8841 40.6554C59.7387 47.1097 53.6269 45.8838 49.9851 44.4956C46.3614 43.1074 44.7388 40.8718 44.7388 40.8718C44.7388 40.8718 41.2592 41.8814 39.0778 38.7264C36.8963 35.5533 38.4648 32.0558 40.4479 31.3166C42.4491 30.5774 44.7207 32.0197 44.7207 32.0197L43.026 28.5762C43.026 28.5762 51.4094 11.6833 59.2339 22.4104H59.2519Z" fill="#FD8753"/>
<path d="M44.271 37.1216C44.1808 37.1216 44.0907 37.0856 44.0005 37.0315L39.7277 33.9305C39.5294 33.7863 39.4753 33.4978 39.6196 33.2995C39.7638 33.1012 40.0523 33.0471 40.2506 33.1914L44.5234 36.2923C44.7217 36.4365 44.7758 36.725 44.6315 36.9233C44.5414 37.0495 44.3972 37.1036 44.271 37.1036V37.1216Z" fill="black"/>
<path d="M50.3456 28.252C50.2375 28.252 50.1473 28.2159 50.0572 28.1438C49.8589 27.9816 49.8408 27.6931 50.0031 27.5128C51.6797 25.4936 53.699 26.1967 53.7891 26.2328C54.0235 26.3229 54.1497 26.5753 54.0595 26.8097C53.9694 27.0441 53.717 27.1703 53.4826 27.0801C53.4105 27.0621 51.9502 26.5753 50.6882 28.0897C50.598 28.1979 50.4718 28.252 50.3456 28.252Z" fill="black"/>
<path d="M60.4239 26.9898C60.3157 26.9898 60.2256 26.9538 60.1354 26.8817C59.1619 26.0884 58.1162 26.6112 58.0801 26.6473C57.8638 26.7554 57.5934 26.6833 57.4672 26.467C57.359 26.2507 57.4311 25.9802 57.6475 25.854C57.7196 25.818 59.27 24.9886 60.7123 26.1966C60.9107 26.3588 60.9287 26.6473 60.7664 26.8276C60.6763 26.9357 60.5501 26.9898 60.4239 26.9898Z" fill="black"/>
<path d="M60.1899 31.4777C59.9916 31.4777 59.8113 31.3335 59.7573 31.1351L59.1984 28.9897C59.1443 28.7553 59.2885 28.5029 59.5229 28.4489C59.7753 28.3948 60.0097 28.539 60.0637 28.7734L60.6226 30.9188C60.6767 31.1532 60.5325 31.4056 60.2981 31.4597C60.2621 31.4597 60.226 31.4597 60.1899 31.4597V31.4777Z" fill="black"/>
<path d="M53.2495 31.9284C53.0512 31.9284 52.8709 31.7841 52.8168 31.5858L52.2579 29.4404C52.2038 29.206 52.3481 28.9536 52.5825 28.8995C52.8168 28.8455 53.0692 28.9897 53.1233 29.2241L53.6822 31.3695C53.7363 31.6039 53.5921 31.8563 53.3577 31.9104C53.3216 31.9104 53.2856 31.9104 53.2495 31.9104V31.9284Z" fill="black"/>
<path d="M55.3049 40.2223C55.1967 40.2223 55.0705 40.2222 54.9443 40.1862C54.0429 39.9879 53.3217 39.0684 52.7989 37.4638C52.7448 37.2835 52.7989 37.0853 52.9431 36.9771C53.0873 36.8689 53.2857 36.8509 53.4479 36.941L56.7291 38.816C56.8553 38.8881 56.9275 38.9963 56.9455 39.1405C56.9635 39.2847 56.9275 39.411 56.8373 39.5191C56.8013 39.5552 56.1703 40.2403 55.2869 40.2403L55.3049 40.2223ZM54.1691 38.3653C54.4756 38.9061 54.8001 39.2126 55.1426 39.3028C55.3409 39.3388 55.5212 39.3028 55.6835 39.2307L54.1691 38.3653Z" fill="black"/>
<path d="M40.3216 37.2841C40.1774 37.2841 40.0151 37.212 39.943 37.0678C39.8168 36.8514 39.8709 36.581 40.0873 36.4548L42.3408 35.0666C42.5572 34.9404 42.8276 34.9944 42.9538 35.2108C43.08 35.4271 43.0259 35.6976 42.8096 35.8238L40.556 37.212C40.556 37.212 40.3937 37.2841 40.3216 37.2841Z" fill="black"/>
<path d="M57.5211 35.8951C57.5211 35.8951 57.431 35.8951 57.3769 35.8771C57.1425 35.805 57.0163 35.5346 57.0884 35.3002C58.1521 32.1271 56.1329 30.9012 56.0608 30.8471C55.8444 30.7209 55.7723 30.4505 55.8985 30.2341C56.0247 30.0178 56.2952 29.9457 56.5115 30.0719C56.5476 30.0719 59.2519 31.6944 57.9538 35.5886C57.8817 35.7689 57.7194 35.8951 57.5211 35.8951Z" fill="black"/>
<path d="M29.0361 51.417C29.0361 51.417 -3.92038 61.7474 0.38848 88.7905C3.74182 109.812 49.5528 107.306 49.5528 107.306V80.6776L31.8486 79.4516L29.0361 51.435V51.417Z" fill="#E2209E"/>
<path d="M49.5528 81.111C49.5528 81.111 49.4807 81.111 49.4447 81.111C49.3365 81.093 38.6995 78.6772 28.3511 78.9837C28.0987 78.9837 27.9004 78.7853 27.8823 78.551C27.8823 78.2986 28.0806 78.1002 28.315 78.0822C38.7897 77.8298 49.5348 80.2096 49.6249 80.2276C49.8593 80.2817 50.0216 80.5341 49.9675 80.7685C49.9134 80.9848 49.7331 81.111 49.5348 81.111H49.5528Z" fill="#5E1DBB"/>
<path d="M24.1684 79.4886C22.2573 79.4886 20.4004 79.2542 19.4449 78.461C18.9941 78.0824 18.7598 77.5956 18.7598 77.0367C18.7598 76.4778 18.9941 76.0451 19.4268 75.7566C21.6263 74.3324 29.2705 77.7038 30.1359 78.0824C30.3162 78.1725 30.4243 78.3528 30.4063 78.5511C30.3883 78.7494 30.226 78.9117 30.0457 78.9297C29.559 79.0198 26.8186 79.4706 24.1684 79.4706V79.4886ZM20.9773 76.2975C20.5266 76.2975 20.148 76.3696 19.9136 76.5139C19.7874 76.586 19.6612 76.7122 19.6612 77.0367C19.6612 77.3252 19.7694 77.5595 20.0218 77.7759C21.3559 78.8936 25.5926 78.6412 28.2969 78.2987C25.827 77.3071 22.7261 76.2975 20.9593 76.2975H20.9773Z" fill="#5E1DBB"/>
<path d="M52.8521 54.0503C50.0576 54.0503 46.524 53.3291 43.6935 50.4265C43.5132 50.2462 43.5312 49.9578 43.6935 49.7955C43.8738 49.6152 44.1622 49.6333 44.3245 49.7955C49.4446 55.0599 57.1429 52.5539 57.233 52.5359C57.4674 52.4638 57.7198 52.59 57.81 52.8243C57.8821 53.0587 57.7559 53.3111 57.5215 53.4013C57.4854 53.4013 55.5023 54.0683 52.8521 54.0683V54.0503Z" fill="#5E1DBB"/>
<path d="M93.7053 66.9582C93.4169 66.9582 93.1645 66.8321 92.9842 66.6157C92.0827 65.4078 94.138 60.522 94.8051 59.0617C94.8952 58.8634 95.0935 58.7552 95.2918 58.8093C95.4902 58.8453 95.6524 59.0076 95.6704 59.2239C95.7966 60.9547 96.0671 66.6518 93.8676 66.9763C93.8135 66.9763 93.7594 66.9763 93.7053 66.9763V66.9582ZM94.8411 61.3153C93.9217 63.6951 93.4169 65.7323 93.7053 66.0568C94.4986 65.9306 94.8231 63.6229 94.8411 61.3153Z" fill="#5E1DBB"/>
<path d="M124.805 267.708C124.642 267.708 124.48 267.617 124.39 267.455C124.282 267.239 124.39 266.968 124.606 266.86C124.678 266.824 131.259 263.633 131.259 260.081C131.259 259.883 131.223 259.631 131.079 259.559C130.105 259.144 126.013 262.155 122.767 265.184C122.605 265.328 122.353 265.346 122.172 265.202C121.992 265.057 121.956 264.805 122.064 264.625C123.543 262.119 125.652 257.593 124.985 256.169C124.877 255.935 124.696 255.809 124.408 255.773C124.083 255.718 123.795 255.809 123.507 256.043C121.794 257.395 121.037 262.894 120.874 264.895C120.856 265.147 120.64 265.346 120.388 265.31C120.135 265.31 119.955 265.075 119.973 264.823C119.991 264.516 120.568 257.197 122.948 255.322C123.434 254.925 123.975 254.781 124.552 254.871C125.129 254.961 125.562 255.268 125.796 255.773C126.517 257.305 125.183 260.55 124.083 262.786C126.463 260.748 129.979 258.098 131.439 258.729C131.764 258.873 132.16 259.216 132.16 260.081C132.16 264.192 125.291 267.527 124.985 267.671C124.931 267.708 124.859 267.708 124.787 267.708H124.805Z" fill="#FFB700"/>
<path d="M28.3514 274.325C28.2252 274.325 28.099 274.271 28.0088 274.162C27.504 273.586 23.123 268.447 24.385 265.851C24.6735 265.238 25.1242 265.148 25.3766 265.148C26.4403 265.148 27.7925 266.951 28.8742 268.682C28.3333 265.851 27.8285 261.885 28.8381 260.352C29.1086 259.956 29.4872 259.703 29.9199 259.649C30.3525 259.595 30.7672 259.739 31.0917 260.046C33.0208 261.921 32.2095 270.629 32.1013 271.62C32.0833 271.873 31.8489 272.053 31.6146 272.017C31.3622 271.999 31.1819 271.765 31.2179 271.53C31.5785 267.979 31.6867 261.885 30.4787 260.695C30.3525 260.569 30.2083 260.515 30.0461 260.533C29.9379 260.533 29.7576 260.605 29.5953 260.839C28.4595 262.534 29.8117 269.078 30.4247 271.458C30.4787 271.674 30.3706 271.909 30.1542 271.999C29.9379 272.089 29.7035 271.999 29.5953 271.783C28.1891 269.006 26.1879 266.013 25.4127 266.013C25.3406 266.013 25.2685 266.122 25.2324 266.212C24.385 267.961 27.468 272.089 28.73 273.531C28.8922 273.712 28.8742 274 28.6939 274.162C28.6038 274.235 28.4956 274.271 28.4054 274.271L28.3514 274.325Z" fill="#FFB700"/>
<path d="M54.8895 243.965H12.7925C12.5401 243.965 12.3418 243.767 12.3418 243.515C12.3418 243.262 12.5401 243.064 12.7925 243.064H54.8715C55.1239 243.064 55.3222 243.262 55.3222 243.515C55.3222 243.767 55.1239 243.965 54.8715 243.965H54.8895Z" fill="white"/>
<path d="M120.244 243.965H76.7769C76.5245 243.965 76.3262 243.767 76.3262 243.515C76.3262 243.262 76.5245 243.064 76.7769 243.064H120.244C120.497 243.064 120.695 243.262 120.695 243.515C120.695 243.767 120.497 243.965 120.244 243.965Z" fill="white"/>
<path d="M67.4731 96.9577C67.4731 96.9577 78.1822 95.5515 79.3 97.3544C80.4178 99.1572 79.4081 100.365 78.2002 100.563C76.9923 100.762 67.4912 96.9577 67.4912 96.9577H67.4731Z" fill="#FD8753"/>
<path d="M50.6357 90.8479C50.6357 90.8479 55.0347 85.8359 57.6489 85.5475C60.245 85.241 66.6633 85.9441 66.4649 87.3503C66.2666 88.7566 60.9482 89.9464 60.9482 89.9464C60.9482 89.9464 68.6644 96.2565 69.656 96.8514C70.6656 97.4464 76.561 99.5557 78.4721 100.061C80.3831 100.565 81.573 101.268 79.68 102.873C77.7689 104.478 67.6548 104.369 64.0491 104.279C60.4434 104.171 50.6357 102.17 50.6357 102.17V90.8479Z" fill="#FD8753"/>
<path d="M78.4887 100.51C74.6126 100.384 69.6547 97.3727 69.4383 97.2285C69.222 97.1023 69.1679 96.8139 69.2941 96.6156C69.4203 96.3992 69.7088 96.3451 69.9071 96.4713C69.9612 96.5074 74.883 99.5002 78.5068 99.6083C78.7592 99.6083 78.9575 99.8247 78.9395 100.077C78.9395 100.329 78.7231 100.51 78.4887 100.51Z" fill="black"/>
<path d="M129.006 62.0007C128.88 62.0007 128.735 61.9466 128.645 61.8384C128.483 61.6401 128.519 61.3697 128.717 61.2074C128.753 61.1714 132.828 57.8361 133.459 50.6787C133.477 50.4263 133.675 50.228 133.946 50.264C134.198 50.282 134.378 50.4984 134.36 50.7508C133.693 58.3229 129.456 61.7663 129.276 61.8925C129.186 61.9646 129.096 61.9827 129.006 61.9827V62.0007Z" fill="black"/>
<path d="M44.2716 31.7672C44.2716 31.7672 45.5156 34.796 46.4531 34.3092C47.3905 33.8225 45.3713 29.9643 45.3713 29.9643C45.3713 29.9643 48.923 29.5316 51.7715 26.7552C54.602 23.9788 55.7018 21.0762 55.7018 21.0762L59.2715 22.4103C59.2715 22.4103 61.4169 15.5594 58.7126 13.3599C56.0083 11.1604 54.2054 13.3599 54.2054 13.3599C54.2054 13.3599 47.697 13.1616 43.4963 17.1639C39.2957 21.1663 38.4844 26.2684 38.4844 26.2684C38.4844 26.2684 36.375 26.3586 36.0865 28.8826C35.7801 31.3886 38.0517 34.3453 38.0517 34.3453C38.0517 34.3453 38.9711 29.9463 44.2896 31.7492L44.2716 31.7672Z" fill="white"/>
<path d="M184.336 26.1597H150.28V64.5428H184.336V26.1597Z" fill="white"/>
<path d="M184.336 50.6965V64.5426H150.28V59.3323C152.894 56.664 158.014 52.9862 167.317 51.021C174.546 49.4886 180.28 49.8492 184.336 50.6965Z" fill="#5E1DBB"/>
<path d="M251.907 28.3047H191.944V32.253H251.907V28.3047Z" fill="#5E1DBB"/>
<path d="M251.907 37.6436H191.944V41.5918H251.907V37.6436Z" fill="#5E1DBB"/>
<path d="M251.907 47.0015H191.944V50.9498H251.907V47.0015Z" fill="#5E1DBB"/>
<path d="M251.907 56.3398H191.944V60.2881H251.907V56.3398Z" fill="#5E1DBB"/>
<path d="M152.533 286.999C151 287.612 86.3675 289.343 84.8711 286.999C84.4564 286.35 84.1499 284.258 83.9336 281.572C92.3169 281.752 114.817 282.131 129.907 281.5C139.66 281.085 147.214 280.671 152.226 280.364C152.226 280.4 152.226 280.436 152.262 280.472C153.164 283.7 153.254 286.692 152.533 286.999Z" fill="#FFB700"/>
<path d="M51.5361 282.239C51.5361 284.582 50.7428 287.233 49.1022 287.9C47.4796 288.585 34.2466 289.973 22.6902 288.981C11.6025 288.044 9.31286 287.233 8.50156 286.259C8.10493 285.754 8.88017 283.411 9.76357 281.157C9.81766 281.049 9.87174 280.923 9.92583 280.814C9.96189 280.742 9.97992 280.67 10.016 280.598C14.5412 281.464 23.0688 282.834 31.8848 282.689C40.2681 282.563 47.4616 282.004 51.482 281.662C51.5181 281.878 51.5361 282.058 51.5361 282.239Z" fill="#FFB700"/>
<path d="M251.907 78.0294L150.279 77.5787C150.027 77.5787 149.829 77.3804 149.829 77.128C149.829 76.8756 150.027 76.6772 150.279 76.6772L251.907 77.128C252.16 77.128 252.358 77.3263 252.358 77.5787C252.358 77.8311 252.16 78.0294 251.907 78.0294Z" fill="#7E59D8"/>
</svg>
